<?xml version="1.0" standalone="no"?><!DOCTYPE svg PUBLIC "-//W3C//DTD SVG 1.1//EN" "http://www.w3.org/Graphics/SVG/1.1/DTD/svg11.dtd"><svg t="1618484422423" class="icon" viewBox="0 0 1024 1024" version="1.1" xmlns="http://www.w3.org/2000/svg" p-id="7881" xmlns:xlink="http://www.w3.org/1999/xlink" width="200" height="200"><defs><style type="text/css"></style></defs><path d="M478.523077 0h31.507692v61.833846h-31.507692zM318.645169 43.456985l29.577846-10.838647 21.283447 58.052924-29.585724 10.846523zM183.311754 138.633846l24.071877-20.330338 40.006892 47.356061-24.071877 20.330339zM88.8832 274.038154l15.682954-27.332923 53.901784 30.932677-15.675076 27.332923zM46.804677 433.175631l5.435077-31.035077 61.298215 10.744123-5.435077 31.035077zM797.837785 778.350277l24.079753-20.322462 39.983262 47.363939-24.071877 20.322461zM886.673723 666.434954l15.675077-27.332923 53.917538 30.932677-15.675076 27.332923zM931.524923 530.951877l5.458708-31.035077 61.290338 10.775631-5.458707 31.035077zM921.789046 357.502031l61.376985-10.712616 5.411446 31.035077-61.376985 10.712616zM858.332554 228.864l53.925415-30.893292 15.659323 27.332923-53.917538 30.901169zM754.435938 129.496615l40.046277-47.324553 24.056123 20.353969-40.046276 47.316677zM622.371446 71.483077l21.346462-58.115939 29.569969 10.862277-21.338585 58.115939z" p-id="7882" fill="#ffffff"></path><path d="M774.852923 1024h-31.507692V719.399385l4.647384-4.568616A326.262154 326.262154 0 0 0 844.878769 482.067692a332.091077 332.091077 0 0 0-664.103384 0c0 4.804923 0 9.688615 0.393846 14.493539v4.568615l-2.284308 4.411077L80.817231 675.288615h69.238154V827.076923a77.745231 77.745231 0 0 0 77.981538 77.351385H391.955692V1024h-31.507692v-87.748923H227.643077A109.252923 109.252923 0 0 1 118.153846 827.076923V706.796308H25.678769l123.904-213.07077V482.067692a363.598769 363.598769 0 0 1 727.118769 0A357.297231 357.297231 0 0 1 774.852923 732.553846z" p-id="7883" fill="#ffffff"></path><path d="M508.770462 764.612923a280.182154 280.182154 0 0 1-280.812308-278.921846h31.507692a249.304615 249.304615 0 1 0 249.304616-247.414154v-31.507692a278.921846 278.921846 0 1 1 0 557.843692z" p-id="7884" fill="#ffffff"></path><path d="M259.465846 485.691077h-31.507692c0-5.671385 0-11.185231 0.472615-16.699077l31.507693 1.811692c-0.315077 4.962462-0.472615 9.688615-0.472616 14.887385zM263.089231 443.313231l-31.035077-5.356308a280.891077 280.891077 0 0 1 7.089231-30.483692l30.247384 8.900923a238.907077 238.907077 0 0 0-6.301538 26.939077z m15.753846-53.090462L249.619692 378.092308a271.832615 271.832615 0 0 1 13.784616-28.041846l27.490461 15.753846a233.472 233.472 0 0 0-12.209231 24.418461z m27.096615-48.206769l-25.6-18.432A290.028308 290.028308 0 0 1 299.795692 299.323077l23.63077 21.188923a228.430769 228.430769 0 0 0-17.644308 21.504z m37.100308-41.038769l-20.873846-23.630769a276.637538 276.637538 0 0 1 24.418461-19.298462L364.386462 283.569231a242.136615 242.136615 0 0 0-21.504 17.408zM388.017231 269.075692l-15.202462-27.56923a297.905231 297.905231 0 0 1 28.120616-13.548308l12.051692 29.144615A259.938462 259.938462 0 0 0 388.017231 269.075692z m51.121231-21.110154l-8.664616-30.247384a273.329231 273.329231 0 0 1 30.404923-6.931692l5.277539 31.035076a267.815385 267.815385 0 0 0-26.939077 6.144zM493.961846 238.670769l-1.811692-31.507692c5.513846 0 11.027692-0.472615 16.620308-0.472615v31.507692c-4.962462 0.078769-9.924923 0.157538-14.808616 0.472615zM508.770462 678.675692A192.984615 192.984615 0 1 1 703.094154 485.691077h-31.507692a162.737231 162.737231 0 1 0-162.737231 161.476923z" p-id="7885" fill="#ffffff"></path><path d="M702.227692 502.862769l-31.507692-2.835692c0-4.726154 0.630154-9.531077 0.630154-14.336h31.507692c0.236308 5.750154 0.236308 11.500308-0.630154 17.171692zM563.830154 670.798769l-8.900923-30.247384A163.288615 163.288615 0 0 0 584.940308 628.499692l14.651077 27.884308a199.443692 199.443692 0 0 1-35.761231 14.414769z m67.741538-35.603692l-19.849846-24.418462a163.603692 163.603692 0 0 0 22.843077-22.685538l24.260923 20.086154a192.118154 192.118154 0 0 1-27.254154 27.017846z m48.758154-58.919385l-27.805538-14.887384a155.963077 155.963077 0 0 0 12.288-29.77477L695.217231 540.672a189.046154 189.046154 0 0 1-14.887385 35.603692zM508.770462 678.675692v-31.507692c4.804923 0 9.609846 0 14.414769-0.630154l2.678154 31.507692c-5.671385 0.315077-11.421538 0.630154-17.092923 0.630154zM508.770462 592.502154A106.811077 106.811077 0 1 1 616.448 485.691077a107.283692 107.283692 0 0 1-107.677538 106.811077z m0-182.114462A75.303385 75.303385 0 1 0 584.940308 485.691077a75.697231 75.697231 0 0 0-76.169846-75.303385z" p-id="7886" fill="#ffffff"></path></svg>